<svg xmlns="http://www.w3.org/2000/svg" width="112" height="123.287" viewBox="0 0 112 123.287"><g transform="translate(-1984 632.519)"><g transform="translate(-187.5 177.5)"><path d="M74.019,0A16,16,0,0,1,87.87,7.992l18.5,32a16,16,0,0,1,0,16.016l-18.5,32A16,16,0,0,1,74.019,96H36.981A16,16,0,0,1,23.13,88.008l-18.5-32a16,16,0,0,1,0-16.016l18.5-32A16,16,0,0,1,36.981,0Z" transform="translate(2275.5 -803.5) rotate(90)" fill="#dd4596"/><g transform="translate(2203.995 -772)"><path d="M173.933,221.27a11.985,11.985,0,0,1,8.119,7.943c1.07-.853,2.378-1.914,3.822-3.124l-8.861-8.862C175.817,218.756,174.77,220.141,173.933,221.27Z" transform="translate(-157.623 -196.862)" fill="#fff"/><path d="M246.759.033c-6.806.716-16.917,12.807-21.2,18.115l9.25,9.251c5.208-4.491,17.23-15.236,17.594-22.063a4.938,4.938,0,0,0-5.648-5.3Z" transform="translate(-204.412 0)" fill="#fff"/><path d="M4.923,289.474c-4.1,5.122-.667,9.693-4.532,13.768A1.407,1.407,0,0,0,.857,305.5c6.4,2.74,14.462.961,18.2-2.978,3.513-3.7,4.6-10.081.338-14.343-4.107-4.107-11-3.049-14.47,1.293Z" transform="translate(0 -258.824)" fill="#fff"/></g></g><g transform="translate(341.5 270.5)" opacity="0.5"><g transform="translate(1750.5 -901.5) rotate(90)" fill="none"><path d="M80.956,0A16,16,0,0,1,94.808,7.992l20.813,36a16,16,0,0,1,0,16.016l-20.813,36A16,16,0,0,1,80.956,104H39.294a16,16,0,0,1-13.852-7.992l-20.812-36a16,16,0,0,1,0-16.016l20.813-36A16,16,0,0,1,39.294,0Z" stroke="none"/><path d="M 39.29390716552734 0 C 33.58097839355469 0 28.30149078369141 3.046073913574219 25.44216156005859 7.991943359375 L 4.629653930664062 43.99194717407227 C 1.765327453613281 48.94645309448242 1.765327453613281 55.05352783203125 4.629653930664062 60.00803756713867 L 25.44214630126953 96.00803375244141 C 28.30149078369141 100.9539260864258 33.58097839355469 104 39.29390716552734 104 L 80.95608520507812 104 C 86.66903686523438 104 91.94850921630859 100.9539260864258 94.80785369873047 96.00803375244141 L 115.620361328125 60.00805282592773 C 118.4846725463867 55.05354690551758 118.4846725463867 48.94645309448242 115.620361328125 43.99194717407227 L 94.80785369873047 7.991943359375 C 91.94850921630859 3.046073913574219 86.66903686523438 0 80.95608520507812 0 L 39.29390716552734 0 M 39.29390716552734 -4 L 80.95608520507812 -4 C 84.45994567871094 -4 87.91614532470703 -3.074455261230469 90.95107269287109 -1.323417663574219 C 93.98597717285156 0.4276199340820312 96.51710510253906 2.956527709960938 98.27078247070312 5.98992919921875 L 119.0833053588867 41.98992538452148 C 120.8400344848633 45.02863693237305 121.7686004638672 48.49005508422852 121.7686004638672 52 C 121.7686004638672 55.50994491577148 120.8400344848633 58.97136306762695 119.0833053588867 62.01005554199219 L 98.27079772949219 98.01005554199219 C 96.51710510253906 101.04345703125 93.98597717285156 103.5723648071289 90.95107269287109 105.3234024047852 C 87.91614532470703 107.0744552612305 84.45994567871094 108 80.95608520507812 108 L 39.29390716552734 108 C 35.79006958007812 108 32.33386993408203 107.0744552612305 29.29894256591797 105.3234024047852 C 26.26401519775391 103.5723648071289 23.73288726806641 101.04345703125 21.97920227050781 98.01005554199219 L 1.166709899902344 62.01005554199219 C -0.5900192260742188 58.97136306762695 -1.518600463867188 55.50994491577148 -1.518600463867188 51.99998092651367 C -1.518600463867188 48.49003601074219 -0.5900192260742188 45.02861785888672 1.166709899902344 41.98992538452148 L 21.97921752929688 5.98992919921875 C 23.73291015625 2.95654296875 26.26401519775391 0.4276351928710938 29.29894256591797 -1.323417663574219 C 32.33386993408203 -3.074455261230469 35.79006958007812 -4 39.29390716552734 -4 Z" stroke="none" fill="#dd4596"/></g></g></g></svg>